<?xml version="1.0" encoding="UTF-8"?>
<svg version="1.1" xmlns="http://www.w3.org/2000/svg" width="180" height="180">
<path d="M0 0 C59.4 0 118.8 0 180 0 C180 59.4 180 118.8 180 180 C120.6 180 61.2 180 0 180 C0 120.6 0 61.2 0 0 Z " fill="#CBBAE9" transform="translate(0,0)"/>
<path d="M0 0 C0.495 1.485 0.495 1.485 1 3 C4.50294871 4.71567661 4.50294871 4.71567661 8 6 C8 7.65 8 9.3 8 11 C8.62390625 11.25652344 9.2478125 11.51304688 9.890625 11.77734375 C12.85253608 13.49415517 13.50485966 15.75684959 14.47265625 18.9375 C15.61090922 25.54779871 15.20712078 32.31843706 15 39 C15.66 38.67 16.32 38.34 17 38 C16.125 43.875 16.125 43.875 15 45 C14.92820036 46.51928038 14.91607993 48.04167482 14.9375 49.5625 C14.94652344 50.38878906 14.95554687 51.21507812 14.96484375 52.06640625 C14.97644531 52.70449219 14.98804687 53.34257813 15 54 C14.01 54.495 14.01 54.495 13 55 C12.1942922 57.23957569 12.1942922 57.23957569 11.6875 59.875 C11.48511719 60.75929687 11.28273438 61.64359375 11.07421875 62.5546875 C10.77106908 64.97945557 10.77106908 64.97945557 12.04296875 66.63671875 C20.16907721 72.29742105 30.84242855 74.75897745 40.45166016 76.53100586 C43.61968716 77.16693463 45.62459852 77.61850681 47.92578125 79.95703125 C49 82 49 82 49.9375 84.5625 C50.80379078 87.1436601 50.80379078 87.1436601 53.125 88.4375 C53.74375 88.953125 54.3625 89.46875 55 90 C55 92 55 94 55 96 C56.80423909 98.70635864 58.76159982 100.77562336 61.125 103 C63 105 63 105 63.85546875 107.328125 C65.1890975 110.44144263 66.86004008 112.29835548 69.1875 114.75 C69.98414063 115.62269531 70.78078125 116.49539062 71.6015625 117.39453125 C73.10524073 119.02800581 74.61934911 120.6520057 76.1484375 122.26171875 C81.91327673 128.8148115 81 130.12641439 81 140 C22.59 140 -35.82 140 -96 140 C-95.20961589 135.25769532 -94.15630112 131.01186938 -92.625 126.5 C-92.41617188 125.86191406 -92.20734375 125.22382813 -91.9921875 124.56640625 C-90.63424621 120.51742276 -88.9374424 116.79869325 -87 113 C-86.544741 111.37407502 -86.09077843 109.74772969 -85.65234375 108.1171875 C-83.51946198 101.19490054 -80.8308405 94.66574368 -76.30859375 88.98828125 C-74.49834662 86.23778636 -73.38755431 83.28749803 -72.125 80.25 C-69.42598146 74.30670665 -69.42598146 74.30670665 -65.875 71.75 C-61.72478444 70.94673247 -57.69479679 70.63138498 -53.48046875 70.375 C-49.34002534 69.92889162 -45.41084596 69.06749143 -41.375 68.0625 C-40.67576416 67.89242432 -39.97652832 67.72234863 -39.25610352 67.54711914 C-35.23277412 66.51850017 -35.23277412 66.51850017 -32 64 C-31.98308463 61.24279442 -32.52283819 58.73283582 -33 56 C-33.33 55.67 -33.66 55.34 -34 55 C-34.07179964 53.48071962 -34.08392007 51.95832518 -34.0625 50.4375 C-34.05347656 49.61121094 -34.04445312 48.78492188 -34.03515625 47.93359375 C-34.02355469 47.29550781 -34.01195312 46.65742187 -34 46 C-34.99 45.67 -35.98 45.34 -37 45 C-37.04241723 42.66705225 -37.04092937 40.33297433 -37 38 C-36.67 37.67 -36.34 37.34 -36 37 C-35.92410151 35.21006056 -35.85323049 33.41972445 -35.81152344 31.62866211 C-35.59974664 24.08621478 -34.96219368 18.94907254 -30 13 C-29.14173412 11.73193149 -28.28747219 10.46114254 -27.4375 9.1875 C-20.64050074 -0.03550516 -10.74819612 -0.49103434 0 0 Z " fill="#996351" transform="translate(99,40)"/>
<path d="M0 0 C0.99 0.33 1.98 0.66 3 1 C3.625 2.8203125 3.625 2.8203125 4 5.125 C4.50331154 8.15535489 5.20848471 10.472714 6.4609375 13.3125 C8.05681064 17.13611484 8.95203371 20.8133889 9.625 24.875 C9.74979736 25.61621094 9.87459473 26.35742188 10.00317383 27.12109375 C12.58697688 43.33372923 12 59.57847755 12 76 C-13.08 76 -38.16 76 -64 76 C-63.20961589 71.25769532 -62.15630112 67.01186938 -60.625 62.5 C-60.41617188 61.86191406 -60.20734375 61.22382813 -59.9921875 60.56640625 C-58.63424621 56.51742276 -56.9374424 52.79869325 -55 49 C-54.544741 47.37407502 -54.09077843 45.74772969 -53.65234375 44.1171875 C-51.51946198 37.19490054 -48.8308405 30.66574368 -44.30859375 24.98828125 C-42.49834662 22.23778636 -41.38755431 19.28749803 -40.125 16.25 C-37.42598146 10.30670665 -37.42598146 10.30670665 -33.875 7.75 C-29.72478444 6.94673247 -25.69479679 6.63138498 -21.48046875 6.375 C-17.34002534 5.92889162 -13.41084596 5.06749143 -9.375 4.0625 C-8.67576416 3.89242432 -7.97652832 3.72234863 -7.25610352 3.54711914 C-3.23277412 2.51850017 -3.23277412 2.51850017 0 0 Z " fill="#1B1E25" transform="translate(67,104)"/>
<path d="M0 0 C2.74318717 1.08283704 5.46332427 2.19970874 8.171875 3.3671875 C15.84416031 6.60026843 23.24837168 9.01915673 31.45214844 10.53076172 C34.61987137 11.16715471 36.62473051 11.61864095 38.92578125 13.95703125 C40 16 40 16 40.9375 18.5625 C41.80379078 21.1436601 41.80379078 21.1436601 44.125 22.4375 C45.053125 23.2109375 45.053125 23.2109375 46 24 C46 26 46 28 46 30 C47.80423909 32.70635864 49.76159982 34.77562336 52.125 37 C54 39 54 39 54.85546875 41.328125 C56.1890975 44.44144263 57.86004008 46.29835548 60.1875 48.75 C60.98414063 49.62269531 61.78078125 50.49539062 62.6015625 51.39453125 C64.10524073 53.02800581 65.61934911 54.6520057 67.1484375 56.26171875 C72.91327673 62.8148115 72 64.12641439 72 74 C44.94 74 17.88 74 -10 74 C-10 63.67289628 -9.81503826 54.08014702 -8.5625 43.9375 C-8.42779297 42.78056641 -8.29308594 41.62363281 -8.15429688 40.43164062 C-6.0982843 22.95051906 -6.0982843 22.95051906 -3.23828125 14.83984375 C-1.48165515 9.8441705 -0.47992908 5.27921989 0 0 Z " fill="#1F2127" transform="translate(108,106)"/>
<path d="M0 0 C1.21719727 -0.00386719 1.21719727 -0.00386719 2.45898438 -0.0078125 C9.19581095 0.10093369 13.78839036 1.73392691 19.4375 5.5 C19.7675 4.51 20.0975 3.52 20.4375 2.5 C25.28480223 11.30737504 24.84408197 19.76462059 24.4375 29.5 C25.0975 29.17 25.7575 28.84 26.4375 28.5 C25.5625 34.375 25.5625 34.375 24.4375 35.5 C24.36570036 37.01928038 24.35357993 38.54167482 24.375 40.0625 C24.38402344 40.88878906 24.39304688 41.71507812 24.40234375 42.56640625 C24.41394531 43.20449219 24.42554688 43.84257813 24.4375 44.5 C23.4475 44.995 23.4475 44.995 22.4375 45.5 C21.75277335 47.38764903 21.75277335 47.38764903 21.3125 49.5625 C21.14492187 50.29597656 20.97734375 51.02945313 20.8046875 51.78515625 C20.62292969 52.63400391 20.62292969 52.63400391 20.4375 53.5 C19.839375 53.644375 19.24125 53.78875 18.625 53.9375 C16.87599596 54.3872439 15.15072977 54.92892341 13.4375 55.5 C13.4375 54.51 13.4375 53.52 13.4375 52.5 C7.65990116 52.37963336 2.15790011 52.6679418 -3.5625 53.5 C-3.2325 52.51 -2.9025 51.52 -2.5625 50.5 C-1.9025 50.5 -1.2425 50.5 -0.5625 50.5 C-0.2325 49.18 0.0975 47.86 0.4375 46.5 C2.9125 46.005 2.9125 46.005 5.4375 45.5 C5.1075 44.18 4.7775 42.86 4.4375 41.5 C2.7875 42.82 1.1375 44.14 -0.5625 45.5 C-3.5625 44 -3.5625 44 -6.5625 42.5 C-6.5625 43.82 -6.5625 45.14 -6.5625 46.5 C-6.8925 47.82 -7.2225 49.14 -7.5625 50.5 C-10.5325 50.5 -13.5025 50.5 -16.5625 50.5 C-18.16975635 47.28548731 -17.61998185 44.06387464 -17.5625 40.5 C-15.93798581 40.16430703 -14.31287083 39.8315204 -12.6875 39.5 C-11.78257813 39.314375 -10.87765625 39.12875 -9.9453125 38.9375 C-7.5625 38.5 -7.5625 38.5 -5.5625 38.5 C-5.418125 37.38625 -5.27375 36.2725 -5.125 35.125 C-4.5625 31.5 -4.5625 31.5 -3.5625 29.5 C-2.5725 29.5 -1.5825 29.5 -0.5625 29.5 C0.4275 31.48 1.4175 33.46 2.4375 35.5 C2.251875 34.9225 2.06625 34.345 1.875 33.75 C1.39726454 31.29307475 1.68020636 29.85602466 2.4375 27.5 C2.7675 27.83 3.0975 28.16 3.4375 28.5 C4.46875 28.479375 5.5 28.45875 6.5625 28.4375 C10.68575856 28.50400417 13.55363177 29.23179813 17.4375 30.5 C17.4375 29.51 17.4375 28.52 17.4375 27.5 C18.0975 27.5 18.7575 27.5 19.4375 27.5 C19.9325 28.49 19.9325 28.49 20.4375 29.5 C20.7675 28.18 21.0975 26.86 21.4375 25.5 C20.674375 25.21125 19.91125 24.9225 19.125 24.625 C16.4375 23.5 16.4375 23.5 13.4375 21.5 C10.39515357 21.01815508 7.48114095 21.02408523 4.4375 21.5 C2.12372853 23.39584109 2.12372853 23.39584109 0.4375 25.5 C-0.8825 25.5 -2.2025 25.5 -3.5625 25.5 C-3.5625 24.51 -3.5625 23.52 -3.5625 22.5 C-5.81243359 22.47292861 -8.06246095 22.45357171 -10.3125 22.4375 C-12.19195312 22.42009766 -12.19195312 22.42009766 -14.109375 22.40234375 C-16.84786501 22.47978973 -18.98130293 22.67219185 -21.5625 23.5 C-21.67114945 21.43867858 -21.74838321 19.37568679 -21.8125 17.3125 C-21.85890625 16.16394531 -21.9053125 15.01539062 -21.953125 13.83203125 C-21.39266705 9.05132497 -19.50645827 7.09308532 -15.8527832 4.09887695 C-10.61798228 0.37984596 -6.31412741 -0.22172514 0 0 Z " fill="#DBA896" transform="translate(89.5625,49.5)"/>
<path d="M0 0 C0.2578125 0.56847656 0.515625 1.13695312 0.78125 1.72265625 C2.55912407 5.0447735 4.9597972 7.77941397 7.34375 10.68359375 C10.44560892 15.02180681 11.59511833 19.90730396 13 25 C13.33773437 26.06605469 13.67546875 27.13210937 14.0234375 28.23046875 C15.05136587 32.19827224 15.40791313 35.84903057 15.625 39.9375 C15.68300781 40.96327148 15.68300781 40.96327148 15.7421875 42.00976562 C15.83522412 43.67279513 15.91863787 45.33635847 16 47 C16.969375 47.103125 17.93875 47.20625 18.9375 47.3125 C21.88192706 47.71734491 24.43622691 48.47483183 27.21484375 49.51953125 C32.61971354 51.40681862 37.8819873 51.55491609 43.5625 51.6875 C47.006875 51.790625 50.45125 51.89375 54 52 C54 44.08 54 36.16 54 28 C54.33 28 54.66 28 55 28 C55 36.25 55 44.5 55 53 C29.92 53 4.84 53 -21 53 C-20.20961589 48.25769532 -19.15630112 44.01186938 -17.625 39.5 C-17.41617187 38.86191406 -17.20734375 38.22382813 -16.9921875 37.56640625 C-15.63424621 33.51742276 -13.9374424 29.79869325 -12 26 C-11.544741 24.37407502 -11.09077843 22.74772969 -10.65234375 21.1171875 C-8.25982195 13.35223651 -5.05850242 6.35926018 0 0 Z " fill="#27292E" transform="translate(24,127)"/>
<path d="M0 0 C1.01566486 3.04699457 1.00715253 4.07047798 0.51171875 7.12109375 C0.38321533 7.96140137 0.25471191 8.80170898 0.12231445 9.66748047 C-0.02117432 10.58158691 -0.16466309 11.49569336 -0.3125 12.4375 C-2.3055934 25.90261465 -3.15759102 39.42234933 -4 53 C-10.27 53 -16.54 53 -23 53 C-23.28685824 47.18343691 -23.57236132 41.36683876 -23.85449219 35.55004883 C-23.95071447 33.5744246 -24.04770685 31.59883772 -24.14550781 29.62329102 C-24.28657036 26.77109274 -24.42479212 23.91876823 -24.5625 21.06640625 C-24.60624756 20.19415909 -24.64999512 19.32191193 -24.69506836 18.42323303 C-24.95629676 12.94187155 -25.03876495 7.48766352 -25 2 C-20 7 -20 7 -18.59375 8.6171875 C-16.01102297 10.85808301 -13.75578028 10.82950997 -10.4296875 10.76953125 C-5.41777639 9.18215747 -2.76786895 4.22345126 0 0 Z " fill="#E6F1F8" transform="translate(102,127)"/>
<path d="M0 0 C0.495 1.485 0.495 1.485 1 3 C4.50294871 4.71567661 4.50294871 4.71567661 8 6 C8 7.65 8 9.3 8 11 C8.66 11 9.32 11 10 11 C10 12.32 10 13.64 10 15 C9.46375 14.71125 8.9275 14.4225 8.375 14.125 C2.32685643 11.26008989 -2.90435454 10.63525761 -9.5 10.625 C-10.32886719 10.60050781 -11.15773438 10.57601562 -12.01171875 10.55078125 C-17.71457716 10.52358161 -20.51751866 11.4997908 -25 15 C-25.66 15 -26.32 15 -27 15 C-27.309375 15.639375 -27.61875 16.27875 -27.9375 16.9375 C-29 19 -29 19 -30 20 C-30.23481693 22.18292774 -30.41363323 24.37203174 -30.5625 26.5625 C-30.68818359 28.35880859 -30.68818359 28.35880859 -30.81640625 30.19140625 C-30.87699219 31.11824219 -30.93757813 32.04507813 -31 33 C-30.1646875 32.51080078 -30.1646875 32.51080078 -29.3125 32.01171875 C-26.67755979 30.85893241 -24.86236184 30.76450308 -22 30.8125 C-21.154375 30.81894531 -20.30875 30.82539062 -19.4375 30.83203125 C-17.16747523 30.98845924 -15.18038396 31.36910186 -13 32 C-13 32.99 -13 33.98 -13 35 C-11.68 35 -10.36 35 -9 35 C-8.71125 34.360625 -8.4225 33.72125 -8.125 33.0625 C-7 31 -7 31 -5 30 C-0.97758646 29.59620559 2.73620248 29.22767929 6.25 31.375 C6.8275 31.91125 7.405 32.4475 8 33 C9.64797236 33.71162443 11.31165408 34.39031953 13 35 C12.625 36.9375 12.625 36.9375 12 39 C11.01 39.495 11.01 39.495 10 40 C10 39.01 10 38.02 10 37 C9.34 37 8.68 37 8 37 C8 37.99 8 38.98 8 40 C5.68715544 39.85973717 3.37472409 39.71264442 1.0625 39.5625 C-0.22527344 39.48128906 -1.51304688 39.40007812 -2.83984375 39.31640625 C-6 39 -6 39 -7 38 C-6.43260132 42.12973628 -6.43260132 42.12973628 -5 46 C-6.485 45.505 -6.485 45.505 -8 45 C-9.1875 41.9375 -9.1875 41.9375 -10 39 C-10.99 39 -11.98 39 -13 39 C-13.309375 40.134375 -13.61875 41.26875 -13.9375 42.4375 C-15 46 -15 46 -16 47 C-17.62139437 47.12494616 -19.24884122 47.17571624 -20.875 47.1875 C-21.75929688 47.20167969 -22.64359375 47.21585938 -23.5546875 47.23046875 C-26 47 -26 47 -29 45 C-28.31292969 45.02320313 -27.62585938 45.04640625 -26.91796875 45.0703125 C-26.01691406 45.08835938 -25.11585937 45.10640625 -24.1875 45.125 C-22.84751953 45.15980469 -22.84751953 45.15980469 -21.48046875 45.1953125 C-18.74597286 45.18285827 -18.74597286 45.18285827 -16 43 C-15.27617533 40.94074861 -15.27617533 40.94074861 -15 39 C-15.99 39.66 -16.98 40.32 -18 41 C-18.99 41 -19.98 41 -21 41 C-21 41.99 -21 42.98 -21 44 C-21.66 44 -22.32 44 -23 44 C-23.495 42.515 -23.495 42.515 -24 41 C-24.66 40.67 -25.32 40.34 -26 40 C-25.67 40.99 -25.34 41.98 -25 43 C-25.78375 42.79375 -26.5675 42.5875 -27.375 42.375 C-28.24125 42.25125 -29.1075 42.1275 -30 42 C-30.66 42.66 -31.32 43.32 -32 44 C-32.33 43.67 -32.66 43.34 -33 43 C-33.66 43.66 -34.32 44.32 -35 45 C-36 44 -36 44 -36.10107422 41.90209961 C-36.05064501 38.91270917 -35.97015737 35.92580731 -35.875 32.9375 C-35.85953125 31.39932617 -35.85953125 31.39932617 -35.84375 29.83007812 C-35.61078148 22.82758212 -34.26428202 18.52874192 -30 13 C-29.14186958 11.73183982 -28.28718474 10.46133433 -27.4375 9.1875 C-20.64050074 -0.03550516 -10.74819612 -0.49103434 0 0 Z " fill="#734844" transform="translate(99,40)"/>
<path d="M0 0 C2.9719385 1.12451727 5.33440687 2.22293791 8 4 C8.33 3.01 8.66 2.02 9 1 C13.84730223 9.80737504 13.40658197 18.26462059 13 28 C13.66 27.67 14.32 27.34 15 27 C14.125 32.875 14.125 32.875 13 34 C12.92820036 35.51928038 12.91607993 37.04167482 12.9375 38.5625 C12.94652344 39.38878906 12.95554688 40.21507812 12.96484375 41.06640625 C12.97644531 41.70449219 12.98804688 42.34257813 13 43 C12.01 43.495 12.01 43.495 11 44 C10.31527335 45.88764903 10.31527335 45.88764903 9.875 48.0625 C9.70742187 48.79597656 9.53984375 49.52945313 9.3671875 50.28515625 C9.18542969 51.13400391 9.18542969 51.13400391 9 52 C8.401875 52.144375 7.80375 52.28875 7.1875 52.4375 C5.43849596 52.8872439 3.71322977 53.42892341 2 54 C2 53.01 2 52.02 2 51 C-3.77759884 50.87963336 -9.27959989 51.1679418 -15 52 C-14.67 51.01 -14.34 50.02 -14 49 C-13.34 49 -12.68 49 -12 49 C-11.67 47.68 -11.34 46.36 -11 45 C-8.525 44.505 -8.525 44.505 -6 44 C-6.33 42.68 -6.66 41.36 -7 40 C-8.65 41.32 -10.3 42.64 -12 44 C-14 43 -16 42 -18 41 C-18 42.32 -18 43.64 -18 45 C-18.33 46.32 -18.66 47.64 -19 49 C-21.97 49 -24.94 49 -28 49 C-29.60725635 45.78548731 -29.05748185 42.56387464 -29 39 C-27.37548581 38.66430703 -25.75037083 38.3315204 -24.125 38 C-23.22007813 37.814375 -22.31515625 37.62875 -21.3828125 37.4375 C-19 37 -19 37 -17 37 C-16.855625 35.88625 -16.71125 34.7725 -16.5625 33.625 C-16 30 -16 30 -15 28 C-14.01 28 -13.02 28 -12 28 C-11.01 29.98 -10.02 31.96 -9 34 C-9.185625 33.4225 -9.37125 32.845 -9.5625 32.25 C-10.04023546 29.79307475 -9.75729364 28.35602466 -9 26 C-8.67 26.33 -8.34 26.66 -8 27 C-6.96875 26.979375 -5.9375 26.95875 -4.875 26.9375 C-0.75174144 27.00400417 2.11613177 27.73179813 6 29 C6 28.01 6 27.02 6 26 C6.66 26 7.32 26 8 26 C8.495 26.99 8.495 26.99 9 28 C11.17494425 20.75018582 9.38196896 12.02054009 7 5 C5.13252737 3.60761953 5.13252737 3.60761953 3 3 C1.25 1.375 1.25 1.375 0 0 Z " fill="#C28274" transform="translate(101,51)"/>
<path d="M0 0 C0.99 1.485 0.99 1.485 2 3 C2.804375 3.804375 3.60875 4.60875 4.4375 5.4375 C7 8 7 8 8.1171875 10.11328125 C11.13513301 13.13748805 14.57538341 12.67578625 18.6875 12.75 C19.88342773 12.79447266 19.88342773 12.79447266 21.10351562 12.83984375 C23.06846749 12.91044082 25.03423977 12.95749708 27 13 C27 12.34 27 11.68 27 11 C28.95927063 9.2856382 30.95880212 7.61594832 33 6 C33.66 6.33 34.32 6.66 35 7 C30.16015625 16.91015625 30.16015625 16.91015625 26.9375 19.9375 C24.76322 21.94457872 24.76322 21.94457872 24.0625 25.125 C23 28 23 28 20.6875 29.4375 C17.52764434 30.09886514 16.01149386 30.20459755 13 29 C11.09608907 27.11695385 9.60886938 25.16048174 8 23 C7.34 23.99 6.68 24.98 6 26 C5.90203125 25.24976563 5.8040625 24.49953125 5.703125 23.7265625 C4.78324531 17.43014459 3.45117068 11.95146864 0.8046875 6.15625 C0 4 0 4 0 0 Z " fill="#7A4835" transform="translate(70,107)"/>
<path d="M0 0 C2.9719385 1.12451727 5.33440687 2.22293791 8 4 C8.33 3.01 8.66 2.02 9 1 C13.84730223 9.80737504 13.40658197 18.26462059 13 28 C13.66 27.67 14.32 27.34 15 27 C14.67 28.98 14.34 30.96 14 33 C12.515 33.495 12.515 33.495 11 34 C11 33.01 11 32.02 11 31 C10.01 31 9.02 31 8 31 C7.855625 31.94875 7.71125 32.8975 7.5625 33.875 C7 37 7 37 6 39 C2.04 39 -1.92 39 -6 39 C-10.12244898 30.75510204 -10.12244898 30.75510204 -9.625 27.6875 C-9.41875 27.130625 -9.2125 26.57375 -9 26 C-8.67 26.33 -8.34 26.66 -8 27 C-6.96875 26.979375 -5.9375 26.95875 -4.875 26.9375 C-0.75174144 27.00400417 2.11613177 27.73179813 6 29 C6 28.01 6 27.02 6 26 C6.66 26 7.32 26 8 26 C8.33 26.66 8.66 27.32 9 28 C11.17494425 20.75018582 9.38196896 12.02054009 7 5 C5.13252737 3.60761953 5.13252737 3.60761953 3 3 C1.25 1.375 1.25 1.375 0 0 Z " fill="#9E686C" transform="translate(101,51)"/>
<path d="M0 0 C0 1.32 0 2.64 0 4 C0.66 4.66 1.32 5.32 2 6 C1.67 6.99 1.34 7.98 1 9 C0.67 11.31 0.34 13.62 0 16 C-5.94 16 -11.88 16 -18 16 C-19.46192893 5.88832487 -19.46192893 5.88832487 -17.375 1.875 C-12.07624683 -2.30822619 -6.32195333 -0.79791644 0 0 Z " fill="#F2D0C7" transform="translate(99,52)"/>
<path d="M0 0 C0.33 0.99 0.66 1.98 1 3 C4.50294871 4.71567661 4.50294871 4.71567661 8 6 C8 7.65 8 9.3 8 11 C8.66 11 9.32 11 10 11 C10 12.32 10 13.64 10 15 C9.46375 14.71125 8.9275 14.4225 8.375 14.125 C3.43607316 11.78550834 -0.80375162 10.75053219 -6.2734375 10.8046875 C-7.42714844 10.81113281 -8.58085938 10.81757812 -9.76953125 10.82421875 C-11.55423828 10.84935547 -11.55423828 10.84935547 -13.375 10.875 C-15.19451172 10.88853516 -15.19451172 10.88853516 -17.05078125 10.90234375 C-20.03405773 10.92583412 -23.01692594 10.95868318 -26 11 C-25.1875 6.203125 -25.1875 6.203125 -23.5 4.375 C-15.76572174 0.12114696 -8.73949562 -0.3992663 0 0 Z " fill="#3E3843" transform="translate(99,40)"/>
<path d="M0 0 C0.99 0 1.98 0 3 0 C3.66 3.96 4.32 7.92 5 12 C4.01 12.495 4.01 12.495 3 13 C2.31527335 14.88764903 2.31527335 14.88764903 1.875 17.0625 C1.70742187 17.79597656 1.53984375 18.52945313 1.3671875 19.28515625 C1.24601562 19.85105469 1.12484375 20.41695312 1 21 C0.401875 21.144375 -0.19625 21.28875 -0.8125 21.4375 C-2.56150404 21.8872439 -4.28677023 22.42892341 -6 23 C-6 22.01 -6 21.02 -6 20 C-11.77759884 19.87963336 -17.27959989 20.1679418 -23 21 C-22.505 19.515 -22.505 19.515 -22 18 C-21.34 18 -20.68 18 -20 18 C-19.67 16.68 -19.34 15.36 -19 14 C-17.68 13.67 -16.36 13.34 -15 13 C-15 13.99 -15 14.98 -15 16 C-12.03 16 -9.06 16 -6 16 C-5.79029441 11.85906302 -5.79029441 11.85906302 -7 8 C-5.35 8 -3.7 8 -2 8 C-1.34 5.36 -0.68 2.72 0 0 Z " fill="#C99080" transform="translate(109,82)"/>
<path d="M0 0 C1.231394 2.46278801 1.07159196 4.2795055 1 7 C1.66 5.68 2.32 4.36 3 3 C3.33 3.99 3.66 4.98 4 6 C4.33 4.02 4.66 2.04 5 0 C5.33 0 5.66 0 6 0 C6.33 1.65 6.66 3.3 7 5 C7.99 5 8.98 5 10 5 C10 4.34 10 3.68 10 3 C10.99 3.33 11.98 3.66 13 4 C13 4.99 13 5.98 13 7 C13.66 7 14.32 7 15 7 C15 6.01 15 5.02 15 4 C16.98 3.34 18.96 2.68 21 2 C20.6875 4.375 20.6875 4.375 20 7 C19.01 7.66 18.02 8.32 17 9 C18.32 9 19.64 9 21 9 C21 9.66 21 10.32 21 11 C19.37548581 11.33569297 17.75037083 11.6684796 16.125 12 C14.76761719 12.2784375 14.76761719 12.2784375 13.3828125 12.5625 C11 13 11 13 9 13 C9.1135629 14.64666203 9.24117381 16.29236082 9.375 17.9375 C9.44460937 18.85402344 9.51421875 19.77054688 9.5859375 20.71484375 C9.72257812 21.46894531 9.85921875 22.22304687 10 23 C10.66 23.33 11.32 23.66 12 24 C11.01 24 10.02 24 9 24 C9 23.34 9 22.68 9 22 C8.01 22 7.02 22 6 22 C5.67 23.32 5.34 24.64 5 26 C2.4084738 20.06108578 1.59631705 15.45892714 2 9 C1.01 8.67 0.02 8.34 -1 8 C-1.04241723 5.66705225 -1.04092937 3.33297433 -1 1 C-0.67 0.67 -0.34 0.34 0 0 Z " fill="#B27465" transform="translate(63,77)"/>
<path d="M0 0 C2.25 1.375 2.25 1.375 4 3 C5.64797236 3.71162443 7.31165408 4.39031953 9 5 C8.625 6.9375 8.625 6.9375 8 9 C7.01 9.495 7.01 9.495 6 10 C6 9.01 6 8.02 6 7 C5.34 7 4.68 7 4 7 C4 7.99 4 8.98 4 10 C1.68715544 9.85973717 -0.62527591 9.71264442 -2.9375 9.5625 C-4.86916016 9.44068359 -4.86916016 9.44068359 -6.83984375 9.31640625 C-10 9 -10 9 -11 8 C-10.43260132 12.12973628 -10.43260132 12.12973628 -9 16 C-9.99 15.67 -10.98 15.34 -12 15 C-13.1875 11.9375 -13.1875 11.9375 -14 9 C-15.32 9.33 -16.64 9.66 -18 10 C-18.33 8.35 -18.66 6.7 -19 5 C-17.02 5 -15.04 5 -13 5 C-12.566875 4.0409375 -12.566875 4.0409375 -12.125 3.0625 C-9.70425852 -1.37552605 -4.47879613 -0.46553795 0 0 Z " fill="#6C4747" transform="translate(103,70)"/>
<path d="M0 0 C0 0.33 0 0.66 0 1 C-1.98 1 -3.96 1 -6 1 C-6 1.66 -6 2.32 -6 3 C-7.96147874 4.38938077 -9.96166576 5.7260411 -12 7 C-11.67 10.63 -11.34 14.26 -11 18 C-1.97582223 18.69037426 6.94361322 19.15178302 16 19 C16 19.33 16 19.66 16 20 C15.39671875 20.02578125 14.7934375 20.0515625 14.171875 20.078125 C8.92185193 20.45070728 6.56598976 20.90571546 3 25 C1.68 25 0.36 25 -1 25 C-1 24.01 -1 23.02 -1 22 C-3.24993359 21.97292861 -5.49996095 21.95357171 -7.75 21.9375 C-9.62945312 21.92009766 -9.62945312 21.92009766 -11.546875 21.90234375 C-14.28536501 21.97978973 -16.41880293 22.17219185 -19 23 C-19.10864945 20.93867858 -19.18588321 18.87568679 -19.25 16.8125 C-19.29640625 15.66394531 -19.3428125 14.51539062 -19.390625 13.33203125 C-18.83396233 8.58369869 -16.68690826 6.40865535 -13.10546875 3.41796875 C-8.46082782 0.43820929 -5.51762597 -0.57475271 0 0 Z " fill="#D79B84" transform="translate(87,50)"/>
<path d="M0 0 C5 5 5 5 6.5390625 6.78125 C9.06257287 8.88642443 11.61217825 8.51991052 14.76953125 8.4375 C18.2586329 7.75312279 19.88641722 5.72720359 22 3 C19.87452471 9.04942966 19.87452471 9.04942966 17 11 C13.8125 11.1875 13.8125 11.1875 11 11 C10.67 12.65 10.34 14.3 10 16 C10.66 16.33 11.32 16.66 12 17 C11.67 17.33 11.34 17.66 11 18 C10.63239269 20.32817964 10.29758419 22.6618385 10 25 C7.82145293 21.7321794 6.50239966 18.61941735 5 15 C4.34 15 3.68 15 3 15 C2.67 18.63 2.34 22.26 2 26 C1.67 26 1.34 26 1 26 C0.67 17.42 0.34 8.84 0 0 Z " fill="#E1E2E6" transform="translate(77,129)"/>
<path d="M0 0 C1.32 0 2.64 0 4 0 C4.33161884 5.19536183 3.50580433 8.96396353 1.734375 13.84375 C0.82090959 16.52583993 0.35972088 19.19417715 0 22 C-0.66 21.67 -1.32 21.34 -2 21 C-2.47308594 21.721875 -2.94617188 22.44375 -3.43359375 23.1875 C-8.77054227 30.67795406 -8.77054227 30.67795406 -12.53515625 31.6640625 C-14.76757111 31.6286835 -16.81615008 31.45496873 -19 31 C-16.08235 29.0549 -14.37462715 28.54723683 -11 28 C-10.7525 26.9275 -10.505 25.855 -10.25 24.75 C-8.95872607 20.8761782 -7.93323206 19.6665746 -5 17 C-2.86681697 13.80022545 -1.33763339 10.60132067 0 7 C-0.99 7.33 -1.98 7.66 -3 8 C-3 7.01 -3 6.02 -3 5 C-2.01 5 -1.02 5 0 5 C0 3.35 0 1.7 0 0 Z " fill="#8B5E4E" transform="translate(104,107)"/>
<path d="M0 0 C-3.22791555 2.1519437 -4.28400809 2.20086443 -8 2 C-11.03546468 7.46383642 -11 11.65259082 -11 18 C-5.06 18 0.88 18 7 18 C7 17.01 7 16.02 7 15 C7.99 15 8.98 15 10 15 C10.33 15.99 10.66 16.98 11 18 C8.08404229 20.91595771 -0.76316588 19.92570629 -5 20 C-8.69441785 19.82806909 -12.33551695 19.49520041 -16 19 C-17.57371717 14.86899244 -18.67290218 11.42192864 -18 7 C-15.625 4.625 -15.625 4.625 -13 3 C-12.34 3 -11.68 3 -11 3 C-11 2.34 -11 1.68 -11 1 C-7.27569643 0.30710631 -3.78916254 -0.11144596 0 0 Z " fill="#E6AD9C" transform="translate(92,50)"/>
<path d="M0 0 C0 1.32 0 2.64 0 4 C0.66 4.66 1.32 5.32 2 6 C1.67 6.99 1.34 7.98 1 9 C0.67 11.31 0.34 13.62 0 16 C-5.94 16 -11.88 16 -18 16 C-19.46192893 5.88832487 -19.46192893 5.88832487 -17.375 1.875 C-12.07624683 -2.30822619 -6.32195333 -0.79791644 0 0 Z M-15 4 C-15.94817025 7.62812253 -16 11.26807032 -16 15 C-11.38 15 -6.76 15 -2 15 C-2 13.35 -2 11.7 -2 10 C-2.99 10 -3.98 10 -5 10 C-4.34 8.02 -3.68 6.04 -3 4 C-7.08673007 1.66472567 -11.16502411 0.82622685 -15 4 Z " fill="#F0C6BB" transform="translate(99,52)"/>
<path d="M0 0 C3.57816743 1.19272248 3.62060138 1.7871013 5.25 5 C6.46367893 7.20045282 6.46367893 7.20045282 8 9 C11.59385054 9.97873538 11.59385054 9.97873538 15 10 C15.66 10.66 16.32 11.32 17 12 C16.625 15.125 16.625 15.125 16 18 C12.67465243 19.10844919 10.37817425 18.84454356 7 18 C7 15.69 7 13.38 7 11 C6.01 11.66 5.02 12.32 4 13 C2.35 12.67 0.7 12.34 -1 12 C-0.67 8.04 -0.34 4.08 0 0 Z " fill="#E2AA9F" transform="translate(87,80)"/>
<path d="M0 0 C0.33 1.32 0.66 2.64 1 4 C0.195625 4.268125 -0.60875 4.53625 -1.4375 4.8125 C-2.283125 5.204375 -3.12875 5.59625 -4 6 C-4.33 6.99 -4.66 7.98 -5 9 C-5.99 9.99 -6.98 10.98 -8 12 C-3.38 12 1.24 12 6 12 C6 12.66 6 13.32 6 14 C-6.375 14.495 -6.375 14.495 -19 15 C-18.67 13.35 -18.34 11.7 -18 10 C-15.69 10.33 -13.38 10.66 -11 11 C-11.66 8.36 -12.32 5.72 -13 3 C-12.34 3 -11.68 3 -11 3 C-11 2.34 -11 1.68 -11 1 C-9.02 1.66 -7.04 2.32 -5 3 C-4.54625 2.505 -4.0925 2.01 -3.625 1.5 C-2 0 -2 0 0 0 Z " fill="#864B3F" transform="translate(94,91)"/>
<path d="M0 0 C5.44693314 -0.09688221 10.63904667 -0.12862175 16 1 C15.01 2.485 15.01 2.485 14 4 C14.3121764 6.64632287 14.3121764 6.64632287 15 9 C14.34 9 13.68 9 13 9 C13 9.66 13 10.32 13 11 C10.75026553 11.054138 8.50015617 11.09285491 6.25 11.125 C4.99703125 11.14820312 3.7440625 11.17140625 2.453125 11.1953125 C-0.72820492 11.01537302 -2.36521896 10.68998582 -5 9 C-5 7 -5 7 -3 5 C-1.68 5 -0.36 5 1 5 C1 6.32 1 7.64 1 9 C1.66 9 2.32 9 3 9 C3.33 7.68 3.66 6.36 4 5 C5.32 4.67 6.64 4.34 8 4 C5.36 3.34 2.72 2.68 0 2 C0 1.34 0 0.68 0 0 Z " fill="#B97F72" transform="translate(85,105)"/>
<path d="M0 0 C2.9719385 1.12451727 5.33440687 2.22293791 8 4 C8.33 3.01 8.66 2.02 9 1 C13.84730223 9.80737504 13.40658197 18.26462059 13 28 C13.66 27.67 14.32 27.34 15 27 C14.67 28.98 14.34 30.96 14 33 C12.515 33.495 12.515 33.495 11 34 C11 33.01 11 32.02 11 31 C10.01 31 9.02 31 8 31 C7.34 32.32 6.68 33.64 6 35 C5.01 34.67 4.02 34.34 3 34 C3.99 33.34 4.98 32.68 6 32 C6.2502157 28.91634129 6.2502157 28.91634129 6 26 C6.66 26 7.32 26 8 26 C8.33 26.66 8.66 27.32 9 28 C11.17494425 20.75018582 9.38196896 12.02054009 7 5 C5.13252737 3.60761953 5.13252737 3.60761953 3 3 C1.25 1.375 1.25 1.375 0 0 Z " fill="#856E6B" transform="translate(101,51)"/>
<path d="M0 0 C0.33 0.66 0.66 1.32 1 2 C2.98 2 4.96 2 7 2 C5.21229099 4.06997885 4.04575109 4.98326179 1.4375 5.9375 C-1.13877485 6.78161885 -1.13877485 6.78161885 -2.25 9.0625 C-2.4975 9.701875 -2.745 10.34125 -3 11 C-3.33 11.33 -3.66 11.66 -4 12 C-4.07271741 14.35313555 -4.08370868 16.70833668 -4.0625 19.0625 C-4.05347656 20.35285156 -4.04445313 21.64320312 -4.03515625 22.97265625 C-4.02355469 23.97167969 -4.01195313 24.97070312 -4 26 C-5.32 26.33 -6.64 26.66 -8 27 C-8 30.3 -8 33.6 -8 37 C-8.66 36.67 -9.32 36.34 -10 36 C-9.97698467 32.33198782 -9.89938545 28.66701136 -9.8125 25 C-9.80669922 23.97003906 -9.80089844 22.94007812 -9.79492188 21.87890625 C-9.59480791 14.89715227 -8.36021224 10.47500175 -4 5 C-2.8553125 3.515 -2.8553125 3.515 -1.6875 2 C-1.130625 1.34 -0.57375 0.68 0 0 Z " fill="#8A6359" transform="translate(73,48)"/>
<path d="M0 0 C0.99 1.485 0.99 1.485 2 3 C2.804375 3.804375 3.60875 4.60875 4.4375 5.4375 C7 8 7 8 8.1171875 10.11328125 C11.13513301 13.13748805 14.57538341 12.67578625 18.6875 12.75 C19.88342773 12.79447266 19.88342773 12.79447266 21.10351562 12.83984375 C23.06846749 12.91044082 25.03423977 12.95749708 27 13 C27 12.34 27 11.68 27 11 C28.95927063 9.2856382 30.95880212 7.61594832 33 6 C33.66 6.33 34.32 6.66 35 7 C33.1524658 11.06457524 31.63079636 14.33471796 28 17 C24.96476276 17.4743986 22.05426017 17.28449495 19 17.0625 C18.19304687 17.03865234 17.38609375 17.01480469 16.5546875 16.99023438 C12.26121234 16.73163397 10.57703697 16.5779166 7.4375 13.43359375 C6.963125 12.63050781 6.48875 11.82742187 6 11 C5.01 12.485 5.01 12.485 4 14 C3.32471777 12.42032193 2.66010306 10.83608097 2 9.25 C1.62875 8.36828125 1.2575 7.4865625 0.875 6.578125 C0 4 0 4 0 0 Z " fill="#673E2F" transform="translate(70,107)"/>
<path d="M0 0 C0.66 0.33 1.32 0.66 2 1 C2 1.99 2 2.98 2 4 C2.61875 3.505 3.2375 3.01 3.875 2.5 C6 1 6 1 8 1 C8.33 2.32 8.66 3.64 9 5 C8.195625 5.2475 7.39125 5.495 6.5625 5.75 C3.828919 6.72238859 3.828919 6.72238859 3.1875 9.125 C3.0946875 10.053125 3.0946875 10.053125 3 11 C2.01 11 1.02 11 0 11 C-0.33 12.65 -0.66 14.3 -1 16 C-6.28 16.66 -11.56 17.32 -17 18 C-17.33 16.68 -17.66 15.36 -18 14 C-13.05 14.33 -8.1 14.66 -3 15 C-3 14.34 -3 13.68 -3 13 C-2.34 13 -1.68 13 -1 13 C-1 11.68 -1 10.36 -1 9 C-1.66 8.67 -2.32 8.34 -3 8 C-2.34 7.34 -1.68 6.68 -1 6 C-2.65 5.67 -4.3 5.34 -6 5 C-6 4.67 -6 4.34 -6 4 C-4.35 4 -2.7 4 -1 4 C-1 3.34 -1 2.68 -1 2 C-4.3 2 -7.6 2 -11 2 C-6.75824072 -0.12087964 -4.6377859 -0.25765477 0 0 Z " fill="#9C6C5D" transform="translate(101,101)"/>
<path d="M0 0 C0.99 0.66 1.98 1.32 3 2 C3.99 1.67 4.98 1.34 6 1 C6 1.99 6 2.98 6 4 C6.99 3.67 7.98 3.34 9 3 C11.1875 3.9375 11.1875 3.9375 13 5 C13 5.66 13 6.32 13 7 C12.16339844 6.97679687 11.32679687 6.95359375 10.46484375 6.9296875 C1.41970706 6.78945282 -7.07150812 7.59945225 -16 9 C-14.39767117 5.63580311 -13.35679922 3.80750727 -10 2 C-7.6392296 1.60653827 -5.3131807 1.37504679 -2.92578125 1.2109375 C-0.99401197 1.2026491 -0.99401197 1.2026491 0 0 Z " fill="#271E1E" transform="translate(89,42)"/>
<path d="M0 0 C0.66 0 1.32 0 2 0 C6.86067222 7.29100833 8.47333991 15.24321174 8 24 C7.34 24 6.68 24 6 24 C5.67 23.01 5.34 22.02 5 21 C2.99983534 19.79117904 2.99983534 19.79117904 1 19 C1 18.34 1 17.68 1 17 C0.01 17 -0.98 17 -2 17 C-2 16.34 -2 15.68 -2 15 C-0.68 14.67 0.64 14.34 2 14 C1.855625 13.40832031 1.71125 12.81664063 1.5625 12.20703125 C0.59177306 8.07470059 -0.27593702 4.2770238 0 0 Z " fill="#0B0E13" transform="translate(117,113)"/>
<path d="M0 0 C0.33 0 0.66 0 1 0 C1.20674944 5.78898419 0.59162079 10.42932723 -1 16 C-1.598125 16.144375 -2.19625 16.28875 -2.8125 16.4375 C-4.56150404 16.8872439 -6.28677023 17.42892341 -8 18 C-8 17.01 -8 16.02 -8 15 C-13.77759884 14.87963336 -19.27959989 15.1679418 -25 16 C-24.67 15.01 -24.34 14.02 -24 13 C-23.34 13 -22.68 13 -22 13 C-21.67 11.68 -21.34 10.36 -21 9 C-20.67 9.99 -20.34 10.98 -20 12 C-17.75026553 12.054138 -15.50015617 12.09285491 -13.25 12.125 C-11.37054688 12.15980469 -11.37054688 12.15980469 -9.453125 12.1953125 C-5.36278275 12.01214973 -5.36278275 12.01214973 -2 10 C-1.08400573 7.59595262 -1.08400573 7.59595262 -0.75 4.875 C-0.60046875 3.96492188 -0.4509375 3.05484375 -0.296875 2.1171875 C-0.19890625 1.41851562 -0.1009375 0.71984375 0 0 Z " fill="#B58375" transform="translate(111,87)"/>
<path d="M0 0 C1.32 0 2.64 0 4 0 C4 0.66 4 1.32 4 2 C7.3 2.33 10.6 2.66 14 3 C14.33 4.32 14.66 5.64 15 7 C14.01 7.66 13.02 8.32 12 9 C12 8.01 12 7.02 12 6 C11.34 6 10.68 6 10 6 C10 6.99 10 7.98 10 9 C3.47692308 8.38461538 3.47692308 8.38461538 1.0625 6.4375 C0.5365625 5.7259375 0.5365625 5.7259375 0 5 C0.66 5 1.32 5 2 5 C2 4.34 2 3.68 2 3 C1.34 2.67 0.68 2.34 0 2 C0 1.34 0 0.68 0 0 Z " fill="#573B3B" transform="translate(97,71)"/>
<path d="M0 0 C0.33 0 0.66 0 1 0 C0.38330256 11.33673594 -0.27448997 22.66969448 -1 34 C-1.99 34 -2.98 34 -4 34 C-4.36584182 25.69403564 -3.8743831 17.88037657 -2.5625 9.6875 C-2.360802 8.42425903 -2.360802 8.42425903 -2.1550293 7.13549805 C-1.14229289 1.14229289 -1.14229289 1.14229289 0 0 Z " fill="#D0DDE3" transform="translate(99,146)"/>
<path d="M0 0 C0.33 0 0.66 0 1 0 C2.59426279 4.88242978 3.19987373 8.80328303 3 14 C3 14.99 3 15.98 3 17 C1.6932211 22.139997 -0.0323724 27.08093099 -2 32 C-2.36871088 33.65919896 -2.71281674 35.3247643 -3 37 C-4.51047521 34.61704813 -5.09191411 33.501733 -4.57421875 30.67578125 C-4.28160156 29.89589844 -3.98898438 29.11601563 -3.6875 28.3125 C-3.40261719 27.52488281 -3.11773437 26.73726562 -2.82421875 25.92578125 C-2 24 -2 24 -1 23 C-1.03222338 21.00215071 -1.06809043 19.00379947 -1.16015625 17.0078125 C-1 15 -1 15 1 12 C1 11.01 1 10.02 1 9 C0.01 9.495 0.01 9.495 -1 10 C-0.67 6.7 -0.34 3.4 0 0 Z " fill="#BCA8C4" transform="translate(114,70)"/>
<path d="M0 0 C3.375 0.6875 3.375 0.6875 7 2 C8.4375 4.625 8.4375 4.625 9 7 C9.66 7 10.32 7 11 7 C11 8.32 11 9.64 11 11 C10.46375 10.71125 9.9275 10.4225 9.375 10.125 C3.60249839 7.39065713 -1.58372293 6.63091636 -7.875 6.375 C-9.050625 6.31699219 -9.050625 6.31699219 -10.25 6.2578125 C-12.16631367 6.16433378 -14.08312319 6.08111505 -16 6 C-16 5.67 -16 5.34 -16 5 C-9.47629963 3.6265894 -2.46064175 3.12432981 4 5 C4 4.34 4 3.68 4 3 C2.68 2.67 1.36 2.34 0 2 C0 1.34 0 0.68 0 0 Z " fill="#523B38" transform="translate(98,44)"/>
<path d="M0 0 C0 0.33 0 0.66 0 1 C-1.98 1 -3.96 1 -6 1 C-6 1.66 -6 2.32 -6 3 C-7.423125 3.928125 -7.423125 3.928125 -8.875 4.875 C-11.82241872 6.87924473 -12.83853833 7.74790731 -14 11 C-14.33 10.67 -14.66 10.34 -15 10 C-15.76173392 14.3164922 -16.16063604 17.74433453 -15 22 C-16.32 22.33 -17.64 22.66 -19 23 C-19.10864945 20.93867858 -19.18588321 18.87568679 -19.25 16.8125 C-19.29640625 15.66394531 -19.3428125 14.51539062 -19.390625 13.33203125 C-18.83396233 8.58369869 -16.68690826 6.40865535 -13.10546875 3.41796875 C-8.46082782 0.43820929 -5.51762597 -0.57475271 0 0 Z " fill="#C38D7B" transform="translate(87,50)"/>
<path d="M0 0 C1.22589844 0.29197266 1.22589844 0.29197266 2.4765625 0.58984375 C3.41628906 0.82380859 3.41628906 0.82380859 4.375 1.0625 C4 3 4 3 3.375 5.0625 C2.385 5.5575 2.385 5.5575 1.375 6.0625 C0.385 7.5475 0.385 7.5475 -0.625 9.0625 C-3.595 8.5675 -3.595 8.5675 -6.625 8.0625 C-6.625 5.4225 -6.625 2.7825 -6.625 0.0625 C-3.99249612 -1.25375194 -2.82320944 -0.68563658 0 0 Z " fill="#976B6F" transform="translate(103.625,78.9375)"/>
<path d="M0 0 C5 5 5 5 6.3125 6.75 C9.19278647 8.88354554 12.48474427 8.71186428 16 9 C16 9.33 16 9.66 16 10 C14.948125 10.12375 13.89625 10.2475 12.8125 10.375 C9.54041229 10.91140782 6.99463924 11.63880035 4 13 C2 11.5625 2 11.5625 0 9 C-0.35442445 5.97175582 -0.23347235 3.03514061 0 0 Z " fill="#C9C6C8" transform="translate(77,129)"/>
<path d="M0 0 C-0.99 0.66 -1.98 1.32 -3 2 C-1.11683841 3.10836423 -1.11683841 3.10836423 1 4 C1.66 3.67 2.32 3.34 3 3 C3.66 3.66 4.32 4.32 5 5 C3.68 5.33 2.36 5.66 1 6 C1 6.99 1 7.98 1 9 C0.34 9 -0.32 9 -1 9 C-1.33 8.01 -1.66 7.02 -2 6 C-2.66 5.67 -3.32 5.34 -4 5 C-3.67 5.99 -3.34 6.98 -3 8 C-3.78375 7.79375 -4.5675 7.5875 -5.375 7.375 C-6.674375 7.189375 -6.674375 7.189375 -8 7 C-8.66 7.66 -9.32 8.32 -10 9 C-11.43088528 6.13822943 -10.59991697 4.06624227 -10 1 C-6.61981469 -0.04005702 -3.5219721 -0.08004482 0 0 Z " fill="#695361" transform="translate(77,75)"/>
<path d="M0 0 C0 1.32 0 2.64 0 4 C-4.95 4.33 -9.9 4.66 -15 5 C-15 6.98 -15 8.96 -15 11 C-17 9 -17 9 -17.125 6.375 C-17.08375 5.59125 -17.0425 4.8075 -17 4 C-11.20200116 -0.0333905 -6.98629919 -0.50604984 0 0 Z " fill="#593F3B" transform="translate(82,71)"/>
<path d="M0 0 C0.33 0 0.66 0 1 0 C1.33 1.65 1.66 3.3 2 5 C2.99 5 3.98 5 5 5 C5 4.34 5 3.68 5 3 C5.99 3.33 6.98 3.66 8 4 C8 4.99 8 5.98 8 7 C8.66 7 9.32 7 10 7 C10 6.01 10 5.02 10 4 C11.98 3.34 13.96 2.68 16 2 C15.6875 4.375 15.6875 4.375 15 7 C11.35581659 9.42945561 10.07076636 9.0828781 5.8125 8.625 C4.72582031 8.51414062 3.63914062 8.40328125 2.51953125 8.2890625 C1.68808594 8.19367188 0.85664062 8.09828125 0 8 C0 5.36 0 2.72 0 0 Z " fill="#936971" transform="translate(68,77)"/>
<path d="M0 0 C0.87890625 6.15234375 0.87890625 6.15234375 1 8 C0 9 0 9 -3.0625 9.0625 C-4.031875 9.041875 -5.00125 9.02125 -6 9 C-6.33 6.36 -6.66 3.72 -7 1 C-4 0 -4 0 0 0 Z " fill="#D69987" transform="translate(80,90)"/>
<path d="M0 0 C1.32 0 2.64 0 4 0 C4.36263859 5.8022175 3.25684543 9.63999211 1 15 C0.34 15 -0.32 15 -1 15 C-1 12.69 -1 10.38 -1 8 C-1.66 8 -2.32 8 -3 8 C-3 7.01 -3 6.02 -3 5 C-2.01 5 -1.02 5 0 5 C0 3.35 0 1.7 0 0 Z " fill="#885C4D" transform="translate(104,107)"/>
<path d="M0 0 C0.66 0 1.32 0 2 0 C2 1.65 2 3.3 2 5 C7.94 5 13.88 5 20 5 C20 4.01 20 3.02 20 2 C20.99 2 21.98 2 23 2 C23.33 2.99 23.66 3.98 24 5 C21.11488287 7.88511713 12.09667793 6.87500294 8 7 C4.63356444 6.83249532 1.33117809 6.5094743 -2 6 C-1.125 1.125 -1.125 1.125 0 0 Z " fill="#E9B2A2" transform="translate(79,63)"/>
<path d="M0 0 C0.33 0.66 0.66 1.32 1 2 C2.98 2 4.96 2 7 2 C5.03292677 4.51348246 4.18526966 4.97353291 0.9375 5.4375 C-2.06229931 5.66178207 -2.06229931 5.66178207 -3.25 7.75 C-3.4975 8.4925 -3.745 9.235 -4 10 C-4.350625 10.78375 -4.70125 11.5675 -5.0625 12.375 C-6.08509696 15.23827149 -6.58054559 17.99391003 -7 21 C-7.33 21 -7.66 21 -8 21 C-8.47034484 14.38904193 -8.43499387 10.29735379 -4 5 C-3.2575 4.05125 -2.515 3.1025 -1.75 2.125 C-1.1725 1.42375 -0.595 0.7225 0 0 Z " fill="#5E494C" transform="translate(73,48)"/>
<path d="M0 0 C4.69564587 4.69564587 4.52825221 11.71830576 5 18 C2.625 18.1875 2.625 18.1875 0 18 C-0.66 17.01 -1.32 16.02 -2 15 C-0.68 15 0.64 15 2 15 C2 14.01 2 13.02 2 12 C1.34 12 0.68 12 0 12 C0 8.04 0 4.08 0 0 Z " fill="#BC9180" transform="translate(107,56)"/>
<path d="M0 0 C3.96 0 7.92 0 12 0 C12 0.33 12 0.66 12 1 C11.39671875 1.02578125 10.7934375 1.0515625 10.171875 1.078125 C4.92185193 1.45070728 2.56598976 1.90571546 -1 6 C-2.32 6 -3.64 6 -5 6 C-5 5.01 -5 4.02 -5 3 C-11.93 2.505 -11.93 2.505 -19 2 C-19 1.67 -19 1.34 -19 1 C-16.77090129 0.97285265 -14.54170633 0.95353746 -12.3125 0.9375 C-11.07113281 0.92589844 -9.82976562 0.91429688 -8.55078125 0.90234375 C-5.53764546 0.98521327 -2.91724661 1.29160551 0 2 C0 1.34 0 0.68 0 0 Z " fill="#B9867B" transform="translate(91,69)"/>
<path d="M0 0 C1.32 0.66 2.64 1.32 4 2 C3.67 4.64 3.34 7.28 3 10 C1.04174127 10.02694851 -0.91662226 10.04637218 -2.875 10.0625 C-3.96554688 10.07410156 -5.05609375 10.08570312 -6.1796875 10.09765625 C-9 10 -9 10 -11 9 C-10.67 7.68 -10.34 6.36 -10 5 C-9.34 5 -8.68 5 -8 5 C-8 5.99 -8 6.98 -8 8 C-5.03 8 -2.06 8 1 8 C1.20970559 3.85906302 1.20970559 3.85906302 0 0 Z " fill="#D69F8E" transform="translate(102,90)"/>
<path d="M0 0 C1.43655854 -0.08131463 2.8744483 -0.13933559 4.3125 -0.1875 C5.51326172 -0.23970703 5.51326172 -0.23970703 6.73828125 -0.29296875 C9.47851584 0.06198392 10.29171079 0.89366282 12 3 C10.35 3 8.7 3 7 3 C7 2.34 7 1.68 7 1 C4.85279101 3.14720899 4.4565779 4.07790143 4 7 C4.33 7.66 4.66 8.32 5 9 C3.35 9 1.7 9 0 9 C0.33 7.35 0.66 5.7 1 4 C0.34 4 -0.32 4 -1 4 C-0.67 2.68 -0.34 1.36 0 0 Z " fill="#5E3E44" transform="translate(94,70)"/>
<path d="M0 0 C0.66 1.32 1.32 2.64 2 4 C2.66 3.67 3.32 3.34 4 3 C3.67 4.98 3.34 6.96 3 9 C2.01 9.33 1.02 9.66 0 10 C0 9.01 0 8.02 0 7 C-0.99 7 -1.98 7 -3 7 C-3.66 8.32 -4.32 9.64 -5 11 C-5.99 10.67 -6.98 10.34 -8 10 C-7.01 9.34 -6.02 8.68 -5 8 C-4.7497843 4.91634129 -4.7497843 4.91634129 -5 2 C-4.34 2 -3.68 2 -3 2 C-2.67 2.66 -2.34 3.32 -2 4 C-1.34 2.68 -0.68 1.36 0 0 Z " fill="#795950" transform="translate(112,75)"/>
<path d="M0 0 C4.29 0.66 8.58 1.32 13 2 C12 5 12 5 10 6 C6.5625 6.3125 6.5625 6.3125 3 6 C1.0625 4.125 1.0625 4.125 0 2 C0 1.34 0 0.68 0 0 Z " fill="#6C3A25" transform="translate(79,129)"/>
<path d="M0 0 C2.2195122 8.56097561 2.2195122 8.56097561 1 11 C1.62648438 10.97679688 2.25296875 10.95359375 2.8984375 10.9296875 C3.71570313 10.91164063 4.53296875 10.89359375 5.375 10.875 C6.18710938 10.85179688 6.99921875 10.82859375 7.8359375 10.8046875 C10 11 10 11 12 13 C7.71 13 3.42 13 -1 13 C-1.9765625 4.6015625 -1.9765625 4.6015625 -2 2 C-1.34 1.34 -0.68 0.68 0 0 Z " fill="#EDBEAF" transform="translate(82,55)"/>
<path d="M0 0 C4.75 -0.125 4.75 -0.125 7 1 C9.37783105 0.91161539 11.75345146 0.75653579 14.125 0.5625 C15.40632813 0.46066406 16.68765625 0.35882813 18.0078125 0.25390625 C18.99523437 0.17011719 19.98265625 0.08632812 21 0 C20.01 0.495 20.01 0.495 19 1 C19 1.66 19 2.32 19 3 C13.3595995 3.92297463 7.58313198 4.62165659 2 3 C1.34 2.01 0.68 1.02 0 0 Z " fill="#795649" transform="translate(78,117)"/>
<path d="M0 0 C-1.60578438 3.79549034 -3.6311092 7.54552242 -7 10 C-10.06547246 10.5040542 -12.92364532 10.36192408 -16 10 C-13 8 -13 8 -9.4375 7.1875 C-5.82277886 6.38281073 -5.82277886 6.38281073 -4.6875 3.4375 C-4.460625 2.633125 -4.23375 1.82875 -4 1 C-2 0 -2 0 0 0 Z " fill="#9E705F" transform="translate(101,128)"/>
<path d="M0 0 C0.33 0.66 0.66 1.32 1 2 C0.34 3.32 -0.32 4.64 -1 6 C-4.96 6 -8.92 6 -13 6 C-12.67 5.01 -12.34 4.02 -12 3 C-10.948125 3.061875 -9.89625 3.12375 -8.8125 3.1875 C-4.84183507 2.9922214 -3.15803031 2.29674932 0 0 Z " fill="#B77B70" transform="translate(108,84)"/>
<path d="M0 0 C1.231394 2.46278801 1.07159196 4.2795055 1 7 C1.66 5.68 2.32 4.36 3 3 C3.28875 3.61875 3.5775 4.2375 3.875 4.875 C4.93720042 7.13325765 4.93720042 7.13325765 7 9 C6.01 9 5.02 9 4 9 C3.67 11.97 3.34 14.94 3 18 C2.67 18 2.34 18 2 18 C2 15.03 2 12.06 2 9 C1.01 8.67 0.02 8.34 -1 8 C-1.04241723 5.66705225 -1.04092937 3.33297433 -1 1 C-0.67 0.67 -0.34 0.34 0 0 Z " fill="#AB7F84" transform="translate(63,77)"/>
<path d="M0 0 C1.32 0.33 2.64 0.66 4 1 C6.18703385 0.62092718 6.18703385 0.62092718 8 0 C8 1.65 8 3.3 8 5 C5 5 5 5 2 4 C1.67 7.63 1.34 11.26 1 15 C0.67 15 0.34 15 0 15 C0 10.05 0 5.1 0 0 Z " fill="#D3D9E0" transform="translate(78,140)"/>
<path d="M0 0 C1.8125 0.125 1.8125 0.125 4 1 C5.0650015 2.96615661 6.06833174 4.96726926 7 7 C7.66 7.33 8.32 7.66 9 8 C8.67 9.32 8.34 10.64 8 12 C3.80186938 8.25572134 1.92223883 5.1596937 0 0 Z " fill="#865643" transform="translate(68,103)"/>
<path d="M0 0 C1.32 0 2.64 0 4 0 C3.875 1.8125 3.875 1.8125 3 4 C0.125 5.8125 0.125 5.8125 -3 7 C-3.99 6.67 -4.98 6.34 -6 6 C-4 4 -2 2 0 0 Z " fill="#1C1516" transform="translate(79,44)"/>
<path d="M0 0 C3.96 0 7.92 0 12 0 C12.33 0.99 12.66 1.98 13 3 C16.50294871 4.71567661 16.50294871 4.71567661 20 6 C19.34 6.66 18.68 7.32 18 8 C18 7.34 18 6.68 18 6 C13.38492226 4.95785309 13.38492226 4.95785309 9 6 C9 4.68 9 3.36 9 2 C6.03 1.67 3.06 1.34 0 1 C0 0.67 0 0.34 0 0 Z " fill="#5D5868" transform="translate(87,40)"/>
<path d="M0 0 C0.66 0 1.32 0 2 0 C2 3.96 2 7.92 2 12 C1.01 12 0.02 12 -1 12 C-1.02687279 10.18757948 -1.04633715 8.37504767 -1.0625 6.5625 C-1.07410156 5.55316406 -1.08570312 4.54382813 -1.09765625 3.50390625 C-1 1 -1 1 0 0 Z " fill="#BBC9D2" transform="translate(96,168)"/>
<path d="M0 0 C0.33 0.99 0.66 1.98 1 3 C4.3 3.33 7.6 3.66 11 4 C11 4.33 11 4.66 11 5 C9.2508503 5.33776684 7.50063855 5.67003671 5.75 6 C4.28820312 6.2784375 4.28820312 6.2784375 2.796875 6.5625 C0 7 0 7 -4 7 C-3.67 6.01 -3.34 5.02 -3 4 C-2.34 4 -1.68 4 -1 4 C-0.67 2.68 -0.34 1.36 0 0 Z " fill="#B07A72" transform="translate(90,96)"/>
<path d="M0 0 C0.33 0 0.66 0 1 0 C2.59426279 4.88242978 3.19987373 8.80328303 3 14 C3 14.99 3 15.98 3 17 C2.67 17.66 2.34 18.32 2 19 C1.34 19 0.68 19 0 19 C0.33 15.7 0.66 12.4 1 9 C0.01 9.495 0.01 9.495 -1 10 C-0.67 6.7 -0.34 3.4 0 0 Z " fill="#B8ACDA" transform="translate(114,70)"/>
<path d="M0 0 C2.57075841 3.01447835 3.52207066 5.35979771 4.1875 9.25 C4.34605469 10.14203125 4.50460938 11.0340625 4.66796875 11.953125 C4.83232422 12.96632812 4.83232422 12.96632812 5 14 C4.01 14 3.02 14 2 14 C0.70538799 9.68462665 -0.4655204 5.48962868 -1 1 C-0.67 0.67 -0.34 0.34 0 0 Z " fill="#0D1117" transform="translate(35,142)"/>
<path d="M0 0 C2 2 2 2 2.125 5.625 C2.08375 6.73875 2.0425 7.8525 2 9 C0.68 9 -0.64 9 -2 9 C-2 6.36 -2 3.72 -2 1 C-1.34 0.67 -0.68 0.34 0 0 Z " fill="#85809B" transform="translate(99,78)"/>
<path d="M0 0 C3.375 0.6875 3.375 0.6875 7 2 C8.4375 4.625 8.4375 4.625 9 7 C9.66 7 10.32 7 11 7 C11 8.32 11 9.64 11 11 C9.68 10.34 8.36 9.68 7 9 C7 7.68 7 6.36 7 5 C6.34 5 5.68 5 5 5 C5 4.34 5 3.68 5 3 C3.35 2.67 1.7 2.34 0 2 C0 1.34 0 0.68 0 0 Z " fill="#393236" transform="translate(98,44)"/>
<path d="M0 0 C4.62 0 9.24 0 14 0 C14 0.99 14 1.98 14 3 C15.32 3 16.64 3 18 3 C18.33 3.99 18.66 4.98 19 6 C16.03 5.505 16.03 5.505 13 5 C12.67 3.68 12.34 2.36 12 1 C8.04 1 4.08 1 0 1 C0 0.67 0 0.34 0 0 Z " fill="#A19CC2" transform="translate(87,39)"/>
<path d="M0 0 C2.9719385 1.12451727 5.33440687 2.22293791 8 4 C8.33 3.01 8.66 2.02 9 1 C10.76462683 4.08809695 11 5.23312136 11 9 C10.34 9 9.68 9 9 9 C8.67 8.01 8.34 7.02 8 6 C6.40075493 4.8460192 6.40075493 4.8460192 4.5 3.9375 C1.10178817 2.20357634 1.10178817 2.20357634 0 0 Z " fill="#685657" transform="translate(101,51)"/>
<path d="M0 0 C4.875 4.75 4.875 4.75 6 7 C4.35 6.67 2.7 6.34 1 6 C0.67 6.99 0.34 7.98 0 9 C0 6.03 0 3.06 0 0 Z " fill="#ABA19F" transform="translate(77,129)"/>
<path d="M0 0 C2.97 0 5.94 0 9 0 C9 0.99 9 1.98 9 3 C7.02 3.33 5.04 3.66 3 4 C2.01 2.68 1.02 1.36 0 0 Z " fill="#473038" transform="translate(73,76)"/>
<path d="M0 0 C1.4540625 0.0309375 1.4540625 0.0309375 2.9375 0.0625 C2.9375 0.7225 2.9375 1.3825 2.9375 2.0625 C1.9475 2.7225 0.9575 3.3825 -0.0625 4.0625 C-1.25482613 6.11253955 -1.25482613 6.11253955 -2.0625 8.0625 C-2.7225 5.7525 -3.3825 3.4425 -4.0625 1.0625 C-3.0625 0.0625 -3.0625 0.0625 0 0 Z " fill="#E4A792" transform="translate(78.0625,60.9375)"/>
<path d="M0 0 C1.32 0 2.64 0 4 0 C4.33 1.98 4.66 3.96 5 6 C2.61435923 5.42415568 0.33317216 4.77772405 -2 4 C-2 2 -2 2 0 0 Z " fill="#AB7564" transform="translate(82,110)"/>
<path d="M0 0 C0.66 0 1.32 0 2 0 C2 0.99 2 1.98 2 3 C4.31 3.33 6.62 3.66 9 4 C9 4.33 9 4.66 9 5 C1.25 5.125 1.25 5.125 -1 4 C-0.67 2.68 -0.34 1.36 0 0 Z " fill="#C5958C" transform="translate(92,95)"/>
<path d="M0 0 C1.32 0 2.64 0 4 0 C4 2.31 4 4.62 4 7 C3.01 7 2.02 7 1 7 C0.67 4.69 0.34 2.38 0 0 Z " fill="#E5A897" transform="translate(75,91)"/>
<path d="M0 0 C0.66 0 1.32 0 2 0 C2.33 3.3 2.66 6.6 3 10 C2.01 9.67 1.02 9.34 0 9 C0 6.03 0 3.06 0 0 Z " fill="#F4CBC1" transform="translate(87,80)"/>
<path d="M0 0 C0.99 0 1.98 0 3 0 C3 0.66 3 1.32 3 2 C5.97 2.33 8.94 2.66 12 3 C11.67 3.66 11.34 4.32 11 5 C10.01 5 9.02 5 8 5 C8 4.34 8 3.68 8 3 C5.36 3 2.72 3 0 3 C0 2.01 0 1.02 0 0 Z " fill="#AB6C62" transform="translate(82,105)"/>
<path d="M0 0 C0.625 1.8125 0.625 1.8125 1 4 C0.01 5.485 0.01 5.485 -1 7 C-1.66 7 -2.32 7 -3 7 C-3 6.01 -3 5.02 -3 4 C-3.66 3.67 -4.32 3.34 -5 3 C-3.35 2.01 -1.7 1.02 0 0 Z " fill="#AA6D64" transform="translate(115,78)"/>
<path d="M0 0 C0.33 0.66 0.66 1.32 1 2 C2.98 2 4.96 2 7 2 C5.875 3.5 5.875 3.5 4 5 C0.8125 5.1875 0.8125 5.1875 -2 5 C-1.34 3.35 -0.68 1.7 0 0 Z " fill="#493534" transform="translate(73,48)"/>
<path d="M0 0 C-1.15173355 2.46800047 -2.04783565 4.04783565 -4 6 C-6.625 6.125 -6.625 6.125 -9 6 C-7.68 5.34 -6.36 4.68 -5 4 C-5 3.34 -5 2.68 -5 2 C-2 0 -2 0 0 0 Z " fill="#543123" transform="translate(102,116)"/>
<path d="M0 0 C-0.375 2.4375 -0.375 2.4375 -1 5 C-1.99 5.495 -1.99 5.495 -3 6 C-3 5.34 -3 4.68 -3 4 C-3.99 4 -4.98 4 -6 4 C-6 3.34 -6 2.68 -6 2 C-2.25 0 -2.25 0 0 0 Z " fill="#9A605F" transform="translate(84,79)"/>
<path d="M0 0 C2.64 0 5.28 0 8 0 C8 0.99 8 1.98 8 3 C5.6568787 2.74438677 3.32156597 2.40729228 1 2 C0.67 1.34 0.34 0.68 0 0 Z " fill="#402F38" transform="translate(97,76)"/>
<path d="M0 0 C0.33 0 0.66 0 1 0 C1.04898438 0.78246094 1.09796875 1.56492188 1.1484375 2.37109375 C1.22320312 3.38300781 1.29796875 4.39492187 1.375 5.4375 C1.44460937 6.44683594 1.51421875 7.45617187 1.5859375 8.49609375 C1.72257812 9.32238281 1.85921875 10.14867188 2 11 C2.66 11.33 3.32 11.66 4 12 C2.68 12.33 1.36 12.66 0 13 C0 8.71 0 4.42 0 0 Z " fill="#B17E6A" transform="translate(68,60)"/>
<path d="M0 0 C2.97 0.495 2.97 0.495 6 1 C5.67 2.32 5.34 3.64 5 5 C3.68 5 2.36 5 1 5 C0.67 3.35 0.34 1.7 0 0 Z " fill="#372727" transform="translate(84,75)"/>
<path d="M0 0 C2.475 0.99 2.475 0.99 5 2 C4.67 2.99 4.34 3.98 4 5 C3.01 5 2.02 5 1 5 C1 4.34 1 3.68 1 3 C0.34 3 -0.32 3 -1 3 C-0.67 2.01 -0.34 1.02 0 0 Z " fill="#F7DDD4" transform="translate(91,54)"/>
<path d="M0 0 C0 1.32 0 2.64 0 4 C-0.66 4 -1.32 4 -2 4 C-2 4.66 -2 5.32 -2 6 C-2.99 5.67 -3.98 5.34 -5 5 C-4.625 3.0625 -4.625 3.0625 -4 1 C-2 0 -2 0 0 0 Z " fill="#AB7A67" transform="translate(100,110)"/>
<path d="M0 0 C0.66 0 1.32 0 2 0 C2.33 1.32 2.66 2.64 3 4 C1.35 4.33 -0.3 4.66 -2 5 C-2 2 -2 2 0 0 Z " fill="#934F48" transform="translate(92,91)"/>
<path d="M0 0 C1.43655854 -0.08131463 2.8744483 -0.13933559 4.3125 -0.1875 C5.51326172 -0.23970703 5.51326172 -0.23970703 6.73828125 -0.29296875 C9.47851584 0.06198392 10.29171079 0.89366282 12 3 C10.35 3 8.7 3 7 3 C7 2.34 7 1.68 7 1 C4.69 1 2.38 1 0 1 C0 0.67 0 0.34 0 0 Z " fill="#70514D" transform="translate(94,70)"/>
<path d="M0 0 C0.99 0 1.98 0 3 0 C3.33 0.99 3.66 1.98 4 3 C3 4 3 4 1.15234375 4.09765625 C-0.8984375 4.06510417 -2.94921875 4.03255208 -5 4 C-5 3.67 -5 3.34 -5 3 C-3.35 3 -1.7 3 0 3 C0 2.01 0 1.02 0 0 Z " fill="#E4BAAF" transform="translate(99,65)"/>
<path d="M0 0 C3 3.625 3 3.625 3 7 C1.02 7 -0.96 7 -3 7 C-2.34 6.67 -1.68 6.34 -1 6 C-0.34227572 2.97065509 -0.34227572 2.97065509 0 0 Z " fill="#D3DEE9" transform="translate(92,173)"/>
<path d="M0 0 C0.33 0.66 0.66 1.32 1 2 C0.06421005 4.35981813 -0.93347808 6.69631264 -2 9 C-2.66 8.67 -3.32 8.34 -4 8 C-1.125 1.125 -1.125 1.125 0 0 Z " fill="#8A553D" transform="translate(97,125)"/>
<path d="M0 0 C0.99 0.66 1.98 1.32 3 2 C1.824375 2.37125 1.824375 2.37125 0.625 2.75 C-2.32317108 4.15389099 -2.9024777 5.00675737 -4 8 C-4 6.02 -4 4.04 -4 2 C-2.68 1.34 -1.36 0.68 0 0 Z " fill="#946858" transform="translate(107,104)"/>
<path d="M0 0 C0.99 0.66 1.98 1.32 3 2 C1.68 2.33 0.36 2.66 -1 3 C-1 3.99 -1 4.98 -1 6 C-1.66 6 -2.32 6 -3 6 C-3.33 4.68 -3.66 3.36 -4 2 C-2.68 1.34 -1.36 0.68 0 0 Z " fill="#7D525A" transform="translate(79,78)"/>
<path d="M0 0 C0.33 0 0.66 0 1 0 C1.66 3.3 2.32 6.6 3 10 C2.01 10 1.02 10 0 10 C-1.231394 6.30581799 -0.64432764 3.7943739 0 0 Z " fill="#BA929D" transform="translate(114,70)"/>
<path d="M0 0 C0.33 0.99 0.66 1.98 1 3 C-1.97 2.67 -4.94 2.34 -8 2 C-4.77208445 -0.1519437 -3.71599191 -0.20086443 0 0 Z " fill="#432D2B" transform="translate(81,72)"/>
</svg>
